<svg width="700" height="315" viewBox="0 0 700 315" fill="none" xmlns="http://www.w3.org/2000/svg">
<g clip-path="url(#clip0_225_149)">
<path d="M303.419 11.9526L269.148 37.2975L271.768 37.9082L303.419 42.1396V11.9526Z" fill="#FFD9CE"/>
<path d="M450.151 0H305.908C300.581 2.26838 261.334 32.2372 257.273 37.123V267.538C257.273 271.072 260.155 273.951 263.691 273.951H450.195C453.731 273.951 456.612 271.072 456.612 267.538V6.41255C456.569 2.8791 453.687 0 450.151 0ZM269.148 37.2975L303.419 11.9526V42.1396L271.768 37.9518L268.843 37.5592L269.148 37.2975ZM447.313 264.703H266.529V46.5455L307.479 51.9983C307.698 52.042 307.872 52.042 308.09 52.042C309.226 52.042 310.273 51.6494 311.146 50.9078C312.151 50.0353 312.718 48.7703 312.718 47.4179V9.24803H447.357V264.703H447.313Z" fill="#F94735"/>
<path d="M330.049 85.806L323.631 80.0042L330.049 74.2023C331.315 73.0681 331.402 71.1051 330.267 69.8401C329.132 68.575 327.168 68.4877 325.902 69.6219L319.004 75.86L312.106 69.6219C310.84 68.4877 308.875 68.575 307.74 69.8401C306.605 71.1051 306.692 73.0681 307.959 74.2023L314.376 80.0042L307.959 85.806C306.692 86.9402 306.605 88.9032 307.74 90.1683C308.351 90.8226 309.181 91.1716 310.01 91.1716C310.753 91.1716 311.495 90.9098 312.062 90.3864L318.96 84.1483L325.858 90.3864C326.469 90.9098 327.168 91.1716 327.91 91.1716C328.739 91.1716 329.569 90.8226 330.18 90.1683C331.402 88.9032 331.315 86.9402 330.049 85.806Z" fill="#F94735"/>
<path d="M408.155 83.3195L401.737 77.5177L408.155 71.7158C409.421 70.5816 409.508 68.6186 408.373 67.3535C407.238 66.0885 405.273 66.0012 404.007 67.1354L397.109 73.3735L390.211 67.1354C388.945 66.0012 386.981 66.0885 385.846 67.3535C384.711 68.6186 384.798 70.5816 386.064 71.7158L392.482 77.5177L386.108 83.3195C384.842 84.4537 384.754 86.4167 385.889 87.6818C386.501 88.3361 387.33 88.6851 388.16 88.6851C388.902 88.6851 389.644 88.4233 390.211 87.8999L397.109 81.6618L404.007 87.8999C404.618 88.4233 405.317 88.6851 406.059 88.6851C406.888 88.6851 407.718 88.3361 408.329 87.6818C409.508 86.4167 409.421 84.4537 408.155 83.3195Z" fill="#F94735"/>
<path d="M324.156 167.381C325.99 169.3 328.173 170.216 330.749 170.216C335.682 170.216 338.258 168.035 340.004 162.451C341.881 156.388 342.318 147.183 342.929 135.536C343.06 133.006 343.191 130.388 343.322 127.684C342.23 127.946 341.095 128.295 340.004 128.6C337.515 129.342 335.202 130.214 332.975 131.174C333.062 131.479 333.15 131.784 333.15 132.09L333.805 158.263C333.848 159.965 332.495 161.361 330.792 161.404C330.749 161.404 330.749 161.404 330.705 161.404C329.046 161.404 327.649 160.096 327.605 158.394L326.994 133.966C322.978 136.103 319.703 138.284 317.215 140.073C317.215 146.834 318.263 161.273 324.156 167.381Z" fill="#FFD9CE"/>
<path d="M408.067 139.157C395.974 129.036 383.139 122.754 369.998 120.486C359.433 118.654 348.65 119.439 337.954 122.754C319.879 128.382 308.398 139.331 307.917 139.811C306.695 140.989 306.651 142.952 307.83 144.173C308.441 144.784 309.227 145.133 310.057 145.133C310.45 145.133 310.842 145.046 311.235 144.915C311.323 146.747 311.497 148.841 311.759 151.066C312.982 160.488 315.645 167.424 319.661 171.656C322.674 174.796 326.428 176.41 330.706 176.41C338.39 176.41 343.323 172.441 345.856 164.327C347.951 157.522 348.431 147.968 349.043 135.885C349.174 132.831 349.348 129.734 349.523 126.419C368.383 123.54 386.675 129.385 404.051 143.912C405.36 145.002 407.281 144.828 408.373 143.519C409.551 142.21 409.377 140.247 408.067 139.157ZM342.931 135.536C342.363 147.183 341.883 156.388 340.005 162.451C338.259 168.035 335.683 170.216 330.75 170.216C328.131 170.216 325.992 169.3 324.158 167.381C318.308 161.273 317.216 146.834 317.26 140.16C319.749 138.371 323.023 136.147 327.039 134.053L327.65 158.482C327.694 160.139 329.048 161.492 330.75 161.492C330.794 161.492 330.794 161.492 330.837 161.492C332.54 161.448 333.893 160.052 333.85 158.351L333.195 132.177C333.195 131.872 333.108 131.523 333.02 131.261C335.203 130.301 337.561 129.429 340.049 128.687C341.141 128.338 342.276 128.033 343.367 127.771C343.192 130.388 343.061 133.006 342.931 135.536Z" fill="#F94735"/>
<path d="M465.298 315L241.031 291.618L253.997 184.437L478.265 207.819L465.298 315Z" fill="#FFD9CE"/>
<path d="M264.171 135.143C263.167 133.791 261.246 133.486 259.849 134.489C259.5 134.751 251.641 140.553 243.303 150.586C238.37 156.475 234.309 162.626 231.166 168.82C227.237 176.672 224.792 184.655 223.963 192.551C222.216 209.171 227.412 225.399 239.374 240.929C239.374 241.19 239.33 241.452 239.33 241.714C239.33 247.646 244.132 252.445 250.07 252.445C256.007 252.445 260.809 247.646 260.809 241.714C260.809 235.781 256.007 230.983 250.07 230.983C246.97 230.983 244.132 232.291 242.168 234.429C232.694 221.037 228.634 207.208 230.075 193.205C231.777 176.978 240.683 163.28 247.887 154.643C255.789 145.133 263.429 139.506 263.472 139.462C264.869 138.459 265.175 136.496 264.171 135.143Z" fill="#F94735"/>
<path d="M489.661 192.551C488.831 184.655 486.43 176.672 482.457 168.82C479.314 162.626 475.254 156.475 470.321 150.586C461.938 140.553 454.08 134.751 453.774 134.489C452.421 133.486 450.457 133.791 449.452 135.143C448.448 136.496 448.754 138.459 450.107 139.462C450.195 139.506 457.704 145.089 465.606 154.512C472.853 163.149 481.802 176.89 483.549 193.162C484.902 206.205 481.497 219.117 473.289 231.637C472.111 231.157 470.801 230.939 469.447 230.939C463.51 230.939 458.708 235.737 458.708 241.67C458.708 247.603 463.51 252.401 469.447 252.401C475.385 252.401 480.187 247.603 480.187 241.67C480.187 239.358 479.445 237.177 478.179 235.432C487.347 221.604 491.189 207.208 489.661 192.551Z" fill="#F94735"/>
<path d="M296.694 261.3L281.065 259.555C278.184 259.25 275.695 257.941 276.045 254.757L279.755 221.516C279.974 219.466 282.157 217.547 284.776 217.852L300.798 219.641C303.025 219.902 304.727 221.865 304.509 223.959C304.291 226.097 302.195 227.405 299.969 227.144L287.701 225.748L286.653 235.258L297.83 236.523C299.881 236.741 301.715 238.573 301.497 240.71C301.278 242.848 299.314 244.288 297 244.026L285.824 242.761L284.732 252.358L297.611 253.797C299.794 254.059 301.54 255.891 301.322 257.898C301.016 260.079 298.921 261.562 296.694 261.3Z" fill="#F94735"/>
<path d="M329.089 246.948L335.812 259.992C337.428 263.176 334.197 265.968 331.534 265.663C330.05 265.488 328.871 264.703 328.26 263.438L320.096 246.818L316.079 246.381L314.551 259.904C314.333 261.955 312.15 263.569 309.924 263.351C307.741 263.089 306.038 261.126 306.3 258.988L310.098 225.006C310.36 222.694 312.63 220.993 315.075 221.255L325.335 222.389C336.424 223.61 339.261 230.328 338.563 236.523C337.908 242.368 334.372 245.858 329.089 246.948ZM324.243 229.848L318 229.15L316.909 238.966L323.545 239.707C327.605 240.143 330.006 238.704 330.355 235.607C330.574 233.12 329.613 230.459 324.243 229.848Z" fill="#F94735"/>
<path d="M364.8 250.962L371.523 264.005C373.139 267.189 369.908 269.981 367.245 269.676C365.761 269.501 364.582 268.716 363.971 267.451L355.807 250.831L351.79 250.395L350.262 263.918C350.044 265.968 347.861 267.582 345.635 267.364C343.452 267.102 341.749 265.139 342.011 263.002L345.809 229.019C346.071 226.707 348.341 225.006 350.786 225.268L361.046 226.402C372.135 227.667 374.972 234.341 374.274 240.536C373.619 246.381 370.083 249.871 364.8 250.962ZM359.998 233.862L353.755 233.164L352.663 242.979L359.256 243.72C363.316 244.157 365.717 242.717 366.066 239.663C366.284 237.133 365.368 234.472 359.998 233.862Z" fill="#F94735"/>
<path d="M378.247 255.28L379.556 243.59C380.517 235.214 385.581 228.627 396.626 229.848C407.672 231.07 411.208 238.66 410.247 247.036L408.938 258.727C407.977 267.364 402.04 273.689 391.824 272.511C381.652 271.377 377.286 263.874 378.247 255.28ZM387.851 244.506L386.542 256.197C386.018 260.908 387.895 264.485 392.741 265.008C397.587 265.532 400.206 262.478 400.73 257.767L402.04 246.076C402.564 241.278 401.036 237.919 395.841 237.308C390.645 236.741 388.375 239.751 387.851 244.506Z" fill="#F94735"/>
<path d="M436.879 259.032L443.602 272.075C445.217 275.26 441.987 278.052 439.324 277.746C437.839 277.572 436.661 276.786 436.049 275.521L427.842 258.901L423.825 258.465L422.297 271.988C422.079 274.038 419.896 275.652 417.67 275.434C415.487 275.172 413.784 273.209 414.046 271.072L417.844 237.09C418.106 234.778 420.376 233.076 422.821 233.338L433.081 234.472C444.17 235.737 447.007 242.412 446.309 248.606C445.698 254.452 442.118 257.941 436.879 259.032ZM432.033 241.932L425.79 241.234L424.699 251.049L431.334 251.791C435.395 252.227 437.796 250.787 438.145 247.734C438.363 245.204 437.403 242.543 432.033 241.932Z" fill="#F94735"/>
<path d="M171.529 197.786H155.376V123.976C155.376 115.6 147.43 108.795 137.695 108.795C127.61 108.795 120.014 115.339 120.014 123.976V197.829H41.2561L47.761 182.779C59.7231 155.123 70.7247 130.083 81.3771 105.916V105.872C92.0294 81.6618 103.031 56.6223 114.993 29.0528L115.037 28.9655C115.779 27.3515 115.779 26.3045 115.779 24.2543C115.779 20.5463 113.771 16.5767 110.322 13.3922C106.786 10.1641 102.202 8.24471 98.0978 8.24471C91.2 8.24471 84.7823 12.1271 82.4685 17.6672L82.4249 17.7981L3.18698 200.49L3.14332 200.621C1.44069 204.285 0.218286 209.477 0 210.916C0.218286 219.248 7.11613 227.798 18.5107 227.798H120.057V272.381C120.057 281.061 127.654 287.561 137.739 287.561C147.823 287.561 155.42 281.018 155.42 272.381V227.754H171.573C181.003 227.754 188.425 221.08 188.425 212.574C188.381 204.416 180.828 197.786 171.529 197.786Z" fill="#F94735"/>
<path d="M683.147 200.534H666.994V126.68C666.994 118.305 659.048 111.5 649.313 111.5C639.228 111.5 631.632 118.043 631.632 126.68V200.534H552.874L559.379 185.484C571.341 157.827 582.386 132.788 593.039 108.577V108.533C603.691 84.3228 614.693 59.327 626.611 31.7574L626.655 31.6701C627.353 30.0561 627.353 29.0091 627.353 27.0025C627.353 23.2946 625.345 19.3249 621.896 16.1404C618.36 12.9123 613.776 10.9929 609.672 10.9929C602.774 10.9929 596.357 14.8754 594.043 20.4155L593.999 20.5463L514.761 203.238L514.718 203.369C513.015 207.034 511.793 212.225 511.574 213.664C511.793 221.996 518.69 230.546 530.085 230.546H631.632V275.129C631.632 283.81 639.228 290.309 649.313 290.309C659.398 290.309 666.994 283.766 666.994 275.129V230.503H683.147C692.577 230.503 699.999 223.828 699.999 215.322C699.999 207.165 692.446 200.534 683.147 200.534Z" fill="#F94735"/>
</g>
<defs>
<clipPath id="clip0_225_149">
<rect width="700" height="315" fill="white"/>
</clipPath>
</defs>
</svg>
