<svg width="45" height="45" viewBox="0 0 45 45" fill="none" xmlns="http://www.w3.org/2000/svg">
<g clip-path="url(#clip0_213_1082)">
<path d="M25.6133 0C25.1278 0 24.7344 0.393447 24.7344 0.878905C24.7344 1.36436 25.1278 1.75781 25.6133 1.75781C35.3331 1.75781 43.2405 9.66555 43.2405 19.385C43.2405 19.8705 43.6343 20.2639 44.1194 20.2639C44.6048 20.2639 44.9983 19.8705 44.9983 19.385C44.9983 8.69635 36.3023 0 25.6133 0Z" fill="#F94735"/>
<path d="M38.8322 20.2643C39.3177 20.2643 39.7111 19.8705 39.7111 19.3854C39.7111 11.6116 33.3868 5.28723 25.6133 5.28723C25.1278 5.28723 24.7344 5.68102 24.7344 6.16614C24.7344 6.65159 25.1278 7.04504 25.6133 7.04504C32.4176 7.04504 37.9533 12.5808 37.9533 19.3854C37.9533 19.8705 38.3468 20.2643 38.8322 20.2643Z" fill="#F94735"/>
<path d="M32.6651 19.3853C32.6651 19.8704 33.0586 20.2642 33.544 20.2642C34.0295 20.2642 34.4229 19.8704 34.4229 19.3853C34.4229 14.5277 30.4709 10.5757 25.6133 10.5757C25.1278 10.5757 24.7344 10.9691 24.7344 11.4542C24.7344 11.9397 25.1278 12.3332 25.6133 12.3332C29.5017 12.3332 32.6651 15.4965 32.6651 19.3853Z" fill="#F94735"/>
<path d="M24.7344 16.7418C24.7344 17.2269 25.1278 17.6204 25.6133 17.6204C26.5863 17.6204 27.378 18.4121 27.378 19.3854C27.378 19.8705 27.7714 20.2643 28.2569 20.2643C28.742 20.2643 29.1358 19.8705 29.1358 19.3854C29.1358 17.4429 27.5555 15.8629 25.6133 15.8629C25.1278 15.8629 24.7344 16.2564 24.7344 16.7418Z" fill="#F94735"/>
<path d="M16.4766 28.5363C16.4766 29.0217 16.0831 29.4152 15.5977 29.4152C15.1122 29.4152 14.7188 29.0217 14.7188 28.5363C14.7188 28.0511 15.1122 27.6573 15.5977 27.6573C16.0831 27.6573 16.4766 28.0511 16.4766 28.5363Z" fill="#F94735"/>
<path d="M24.0848 43.9329C28.0869 45.8943 32.9017 45.0782 36.0664 41.9135L37.8836 40.0963C38.8704 39.1106 38.8707 37.5138 37.884 36.5274L30.8624 29.5065C29.8774 28.5201 28.2802 28.5187 27.2942 29.5061L24.3107 32.49C23.7264 33.0743 22.8245 33.1934 22.1667 32.7735C21.0942 32.0879 20.0508 31.3319 19.0658 30.5265C18.6899 30.2192 18.1364 30.2748 17.8292 30.6504C17.5219 31.0264 17.5775 31.5802 17.9531 31.8871C18.991 32.7358 20.0899 33.5323 21.2205 34.2546C22.568 35.1153 24.3904 34.896 25.5536 33.7328L28.5377 30.7486C28.8361 30.4499 29.3195 30.4492 29.6192 30.749L36.6412 37.7703C36.9402 38.0696 36.9409 38.5537 36.6412 38.8527L34.8236 40.6706C32.1872 43.307 28.1827 43.9837 24.8583 42.3546C12.6797 36.3825 6.05356 26.913 2.63956 20.0205C1.00638 16.7243 1.68444 12.7348 4.32699 10.093L6.10471 8.3156C6.40271 8.01691 6.88646 8.01588 7.18583 8.31595L14.2085 15.3383C14.5058 15.6352 14.5089 16.1193 14.2078 16.4197L11.2243 19.4035C10.0612 20.5667 9.84177 22.3891 10.7025 23.737C11.2096 24.5304 11.7561 25.3131 12.3274 26.0633C12.6213 26.4495 13.1727 26.524 13.5589 26.2302C13.9452 25.9363 14.02 25.3849 13.7258 24.9983C13.184 24.2866 12.6649 23.5437 12.1836 22.7908C11.7637 22.1326 11.8828 21.2307 12.4672 20.6464L15.4503 17.6632C16.4367 16.6782 16.4377 15.0808 15.451 14.0951L8.429 7.07346C7.44435 6.0871 5.84688 6.08572 4.8612 7.07312L3.08416 8.85015C-0.0922561 12.0255 -0.90387 16.8283 1.0644 20.8009C4.59959 27.9375 11.4626 37.7435 24.0848 43.9329Z" fill="#F94735"/>
</g>
<defs>
<clipPath id="clip0_213_1082">
<rect width="45" height="45" fill="white"/>
</clipPath>
</defs>
</svg>
