<svg width="45" height="45" viewBox="0 0 45 45" fill="none" xmlns="http://www.w3.org/2000/svg">
<g clip-path="url(#clip0_213_1094)">
<path d="M19.909 10.9275L21.376 9.63V15.6795C21.376 15.9779 21.4945 16.264 21.7055 16.475C21.9164 16.686 22.2026 16.8045 22.501 16.8045C22.7993 16.8045 23.0855 16.686 23.2965 16.475C23.5074 16.264 23.626 15.9779 23.626 15.6795V8.796C23.6255 8.43514 23.521 8.08207 23.3249 7.77915C23.1288 7.47623 22.8494 7.23635 22.5203 7.08827C22.1912 6.9402 21.8264 6.89024 21.4696 6.94438C21.1129 6.99852 20.7793 7.15447 20.509 7.3935L18.418 9.243C18.2012 9.44248 18.0713 9.71905 18.0562 10.0133C18.0411 10.3075 18.142 10.5959 18.3373 10.8165C18.5326 11.0371 18.8066 11.1723 19.1005 11.1931C19.3943 11.2138 19.6846 11.1185 19.909 10.9275Z" fill="#F94735"/>
<path d="M2.5215 42.5835C3.84894 43.8907 5.63695 44.6239 7.5 44.625H37.5C39.3889 44.6226 41.1998 43.8712 42.5355 42.5355C43.8712 41.1998 44.6226 39.3889 44.625 37.5V21.039C44.6174 19.3682 44.0179 17.7541 42.933 16.4835C42.9135 16.4505 42.9105 16.413 42.888 16.3815C42.8336 16.315 42.7711 16.2556 42.702 16.2045C42.0399 15.4844 41.2359 14.9091 40.3407 14.5149C39.4454 14.1207 38.4782 13.9161 37.5 13.914H33.1125C33.5149 12.3016 33.5446 10.6187 33.1994 8.99312C32.8541 7.36753 32.143 5.84198 31.12 4.53232C30.097 3.22265 28.7891 2.1633 27.2955 1.43471C25.8018 0.706125 24.1618 0.327454 22.5 0.327454C20.8382 0.327454 19.1982 0.706125 17.7045 1.43471C16.2109 2.1633 14.903 3.22265 13.88 4.53232C12.857 5.84198 12.1459 7.36753 11.8006 8.99312C11.4554 10.6187 11.4851 12.3016 11.8875 13.914H7.5C6.52683 13.9156 5.56442 14.1177 4.67279 14.5077C3.78115 14.8976 2.9794 15.4671 2.3175 16.1805C2.23815 16.2375 2.16699 16.3051 2.106 16.3815C2.08652 16.4199 2.06949 16.4594 2.055 16.5C0.976925 17.7673 0.381834 19.3751 0.375 21.039V37.5C0.37471 39.3561 1.10166 41.1385 2.4 42.465C2.43772 42.5072 2.47832 42.5468 2.5215 42.5835ZM7.5 42.375C6.59661 42.3682 5.7132 42.1084 4.95 41.625L10.1235 36.45C10.3345 36.2389 10.4531 35.9527 10.4531 35.6542C10.4531 35.3558 10.3345 35.0695 10.1235 34.8585C10.019 34.754 9.89494 34.6711 9.75841 34.6145C9.62187 34.558 9.47553 34.5289 9.32775 34.5289C9.02929 34.5289 8.74305 34.6474 8.532 34.8585L3.357 40.0335C2.88264 39.2733 2.62919 38.396 2.625 37.5V21.039C2.62872 20.1804 2.86176 19.3383 3.3 18.6L20.1 30.387C20.8043 30.8769 21.6421 31.1387 22.5 31.137C23.3635 31.1384 24.2069 30.8768 24.918 30.387L41.7 18.6C42.1408 19.3392 42.376 20.1828 42.381 21.0435V37.5C42.3775 38.3989 42.123 39.279 41.646 40.041L36.4695 34.863C36.259 34.6511 35.9731 34.5316 35.6745 34.5306C35.3759 34.5296 35.0891 34.6473 34.8773 34.8577C34.6654 35.0682 34.5458 35.3542 34.5449 35.6528C34.5439 35.9514 34.6615 36.2381 34.872 36.45L40.05 41.634C39.286 42.1146 38.4026 42.3713 37.5 42.375H7.5ZM22.5 2.62498C24.2183 2.62498 25.8981 3.13452 27.3268 4.08917C28.7555 5.04382 29.8691 6.4007 30.5267 7.98823C31.1842 9.57575 31.3563 11.3226 31.0211 13.0079C30.6858 14.6932 29.8584 16.2413 28.6433 17.4563C27.4283 18.6714 25.8803 19.4988 24.1949 19.834C22.5096 20.1693 20.7628 19.9972 19.1752 19.3396C17.5877 18.6821 16.2308 17.5685 15.2762 16.1398C14.3215 14.711 13.812 13.0313 13.812 11.313C13.8152 9.00975 14.7315 6.80177 16.3602 5.17314C17.9888 3.54451 20.1968 2.62815 22.5 2.62498ZM12.711 16.164C13.6123 17.9908 15.0067 19.5289 16.7367 20.6045C18.4666 21.68 20.463 22.25 22.5 22.25C24.537 22.25 26.5334 21.68 28.2633 20.6045C29.9933 19.5289 31.3877 17.9908 32.289 16.164H37.5C38.433 16.1658 39.3456 16.4372 40.128 16.9455L23.628 28.5375C23.2987 28.7653 22.9079 28.8873 22.5075 28.8873C22.1071 28.8873 21.7163 28.7653 21.387 28.5375L4.869 16.95C5.65167 16.4394 6.56549 16.1664 7.5 16.164H12.711Z" fill="#F94735"/>
</g>
<defs>
<clipPath id="clip0_213_1094">
<rect width="45" height="45" fill="white"/>
</clipPath>
</defs>
</svg>
