<svg width="32" height="45" viewBox="0 0 32 45" fill="none" xmlns="http://www.w3.org/2000/svg">
<path d="M16 0C7.1776 0 0 7.09699 0 15.8203C0 18.7676 0.825689 21.6439 2.38836 24.1393L15.0892 44.3768C15.3325 44.7645 15.7612 45 16.2221 45C16.2257 45 16.2292 45 16.2327 45C16.6977 44.9964 17.1272 44.7536 17.366 44.3591L29.7432 23.9256C31.2196 21.4829 32 18.6802 32 15.8203C32 7.09699 24.8224 0 16 0ZM27.4548 22.5719L16.202 41.1492L4.65484 22.7501C3.35413 20.6731 2.64889 18.2769 2.64889 15.8203C2.64889 8.55088 8.648 2.61914 16 2.61914C23.352 2.61914 29.3422 8.55088 29.3422 15.8203C29.3422 18.204 28.6835 20.539 27.4548 22.5719Z" fill="#F94735"/>
<path d="M16 7.91016C11.5888 7.91016 8 11.4587 8 15.8203C8 20.1541 11.5304 23.7305 16 23.7305C20.5247 23.7305 24 20.1065 24 15.8203C24 11.4587 20.4112 7.91016 16 7.91016ZM16 21.1113C13.0438 21.1113 10.6489 18.7354 10.6489 15.8203C10.6489 12.9125 13.0592 10.5293 16 10.5293C18.9408 10.5293 21.3422 12.9125 21.3422 15.8203C21.3422 18.6928 19.003 21.1113 16 21.1113Z" fill="#F94735"/>
</svg>
